<svg xmlns="http://www.w3.org/2000/svg" viewBox="0 0 900 320" width="900" height="320">
    <defs>
      <linearGradient id="gg1" x1="0" y1="0" x2="0" y2="1">
        <stop offset="0" stop-color="#39ff88" stop-opacity="0.35"></stop>
        <stop offset="1" stop-color="#39ff88" stop-opacity="0"></stop>
      </linearGradient>
    </defs>
    <line x1="40" y1="280.0" x2="880" y2="280.0" stroke="rgba(255,255,255,.08)" stroke-width="1" stroke-dasharray="2,4"></line>
    <text x="32" y="284.0" font-family="&#39;JetBrains Mono&#39;,monospace" font-size="11" fill="rgba(255,255,255,.45)" text-anchor="end">0</text><line x1="40" y1="217.5" x2="880" y2="217.5" stroke="rgba(255,255,255,.08)" stroke-width="1" stroke-dasharray="2,4"></line>
    <text x="32" y="221.5" font-family="&#39;JetBrains Mono&#39;,monospace" font-size="11" fill="rgba(255,255,255,.45)" text-anchor="end">25</text><line x1="40" y1="155.0" x2="880" y2="155.0" stroke="rgba(255,255,255,.08)" stroke-width="1" stroke-dasharray="2,4"></line>
    <text x="32" y="159.0" font-family="&#39;JetBrains Mono&#39;,monospace" font-size="11" fill="rgba(255,255,255,.45)" text-anchor="end">50</text><line x1="40" y1="92.5" x2="880" y2="92.5" stroke="rgba(255,255,255,.08)" stroke-width="1" stroke-dasharray="2,4"></line>
    <text x="32" y="96.5" font-family="&#39;JetBrains Mono&#39;,monospace" font-size="11" fill="rgba(255,255,255,.45)" text-anchor="end">75</text><line x1="40" y1="30.0" x2="880" y2="30.0" stroke="rgba(255,255,255,.08)" stroke-width="1" stroke-dasharray="2,4"></line>
    <text x="32" y="34.0" font-family="&#39;JetBrains Mono&#39;,monospace" font-size="11" fill="rgba(255,255,255,.45)" text-anchor="end">100</text>
    <path d="M40.0,230.0 L92.5,205.0 L145.0,190.0 L197.5,182.5 L250.0,172.5 L302.5,162.5 L355.0,157.5 L407.5,145.0 L460.0,125.0 L512.5,112.5 L565.0,102.5 L617.5,92.5 L670.0,75.0 L722.5,60.0 L775.0,47.5 L827.5,37.5 L880.0,30.0 L880.0,280 L40.0,280 Z" fill="url(#gg1)"></path>
    <path d="M40.0,230.0 L92.5,205.0 L145.0,190.0 L197.5,182.5 L250.0,172.5 L302.5,162.5 L355.0,157.5 L407.5,145.0 L460.0,125.0 L512.5,112.5 L565.0,102.5 L617.5,92.5 L670.0,75.0 L722.5,60.0 L775.0,47.5 L827.5,37.5 L880.0,30.0" fill="none" stroke="#39ff88" stroke-width="2.5" stroke-linejoin="round" stroke-linecap="round"></path>
    <circle cx="40.0" cy="230.0" r="3" fill="#39ff88" stroke="#1a0530" stroke-width="1.5"></circle><circle cx="92.5" cy="205.0" r="3" fill="#39ff88" stroke="#1a0530" stroke-width="1.5"></circle><circle cx="145.0" cy="190.0" r="3" fill="#39ff88" stroke="#1a0530" stroke-width="1.5"></circle><circle cx="197.5" cy="182.5" r="3" fill="#39ff88" stroke="#1a0530" stroke-width="1.5"></circle><circle cx="250.0" cy="172.5" r="3" fill="#39ff88" stroke="#1a0530" stroke-width="1.5"></circle><circle cx="302.5" cy="162.5" r="3" fill="#39ff88" stroke="#1a0530" stroke-width="1.5"></circle><circle cx="355.0" cy="157.5" r="3" fill="#39ff88" stroke="#1a0530" stroke-width="1.5"></circle><circle cx="407.5" cy="145.0" r="3" fill="#39ff88" stroke="#1a0530" stroke-width="1.5"></circle><circle cx="460.0" cy="125.0" r="3" fill="#39ff88" stroke="#1a0530" stroke-width="1.5"></circle><circle cx="512.5" cy="112.5" r="3" fill="#39ff88" stroke="#1a0530" stroke-width="1.5"></circle><circle cx="565.0" cy="102.5" r="3" fill="#39ff88" stroke="#1a0530" stroke-width="1.5"></circle><circle cx="617.5" cy="92.5" r="3" fill="#39ff88" stroke="#1a0530" stroke-width="1.5"></circle><circle cx="670.0" cy="75.0" r="3" fill="#39ff88" stroke="#1a0530" stroke-width="1.5"></circle><circle cx="722.5" cy="60.0" r="3" fill="#39ff88" stroke="#1a0530" stroke-width="1.5"></circle><circle cx="775.0" cy="47.5" r="3" fill="#39ff88" stroke="#1a0530" stroke-width="1.5"></circle><circle cx="827.5" cy="37.5" r="3" fill="#39ff88" stroke="#1a0530" stroke-width="1.5"></circle><circle cx="880.0" cy="30.0" r="5" fill="#c084fc" stroke="#1a0530" stroke-width="1.5"></circle>
    <text x="40.0" y="306" font-family="&#39;JetBrains Mono&#39;,monospace" font-size="11" fill="rgba(255,255,255,.45)" text-anchor="middle">T01</text><text x="250.0" y="306" font-family="&#39;JetBrains Mono&#39;,monospace" font-size="11" fill="rgba(255,255,255,.45)" text-anchor="middle">T05</text><text x="460.0" y="306" font-family="&#39;JetBrains Mono&#39;,monospace" font-size="11" fill="rgba(255,255,255,.45)" text-anchor="middle">T09</text><text x="670.0" y="306" font-family="&#39;JetBrains Mono&#39;,monospace" font-size="11" fill="rgba(255,255,255,.45)" text-anchor="middle">T13</text><text x="880.0" y="306" font-family="&#39;JetBrains Mono&#39;,monospace" font-size="11" fill="rgba(255,255,255,.45)" text-anchor="middle">T17</text>
  </svg>