<?xml version="1.0" encoding="UTF-8"?>
<svg id="Capa_1" data-name="Capa 1" xmlns="http://www.w3.org/2000/svg" viewBox="0 0 201.02 283.46">
  <defs>
    <style>
      .cls-1 {
        fill: #fff;
      }

      .cls-2 {
        fill: #350072;
      }
    </style>
  </defs>
  <polygon class="cls-1" points="72.44 2.96 128.72 2.96 199.37 282.59 3.12 281.11 72.44 2.96"/>
  <path class="cls-2" d="M27.64,233l-4.79,24.85h5.09l-.31-24.85ZM27.64,233l-4.79,24.85h5.09l-.31-24.85ZM27.64,233l-4.79,24.85h5.09l-.31-24.85ZM27.64,233l-4.79,24.85h5.09l-.31-24.85ZM27.64,233l-4.79,24.85h5.09l-.31-24.85ZM27.64,233l-4.79,24.85h5.09l-.31-24.85ZM129.93,0h-58.83L0,283.46h201.02L129.93,0ZM53.14,95.95l1.94-7.72L75.72,5.92h49.59l21.7,86.51,2.07,8.25,17.56,70.03c-3.74-2.77-7.47-5.61-11.45-8.01-4.95-2.99-10.17-5.55-15.67-8.51v-11.1c1.32-.89,3.17-1.59,4.22-2.93,3.71-4.77,2.52-8.96-2.98-11.48-.95-.43-1.93-.87-2.94-1.11-2.5-.59-3.48-1.94-3.6-4.63-.09-1.92-1.44-3.78-2.17-5.69-.68-1.77-2.14-3.78-1.76-5.32,1.28-5.29,3.08-10.47,5.04-15.56.28-.72.97-2.55,2.01-6.84,0,0-1.75-2.94-7.26-6.83-13-9.16-28.12-10.51-43.56-8.22-5.52.82-11.64,1.43-15.22,6.1,0,0-.73,5.39-.73,9.7,0,7.28,1.52,14.04,2.07,20.87.06.77-1.02,1.85-1.83,2.44-3.14,2.3-5.4,5-5.77,9.12-.09,1-1.32,2.54-2.24,2.71-7.23,1.35-9.4,8.62-3.86,14.43,2,2.1,3.7,4.02,3.4,7.19-.1,1.02.73,2.14,1.3,3.66-2.91.46-5.74.84-8.54,1.38-4.2.81-6.07,3.6-5.12,7.16-3.47,1.62-7.12,2.87-10.25,4.92-1.68,1.1-3.2,2.47-4.67,3.88l18.08-72.1ZM110.31,207.57c-.07-.28-.15-.57-.22-.85,1.39-.73,2.78-1.45,4.46-2.33-.7-.53-1.27-.96-1.96-1.49.93-1.01,1.84-2.01,2.75-3.01-.14-.17-.28-.33-.42-.5-1.33.55-2.66,1.1-4.23,1.74,1.76-2.8,5.2-4.33,7.77-3.13,3.27,1.53,2.81,5.01,2.48,7.63-.18,1.43-2.68,2.56-4.14,3.83-.21-.25-.41-.5-.62-.75,1.4-.85,2.8-1.69,4.47-2.7-3.77.57-7.06,1.07-10.35,1.56ZM88.81,159.47c4.11.8,8.27,1.6,12.41,2.41-2.04,3.44-6.55,1.99-12.41-2.41ZM100.99,169.33c-2.55,1.56-5.13,3-8.14,0h8.14ZM92.55,202.6c-1.24.1-2.14.18-3.55.29,1.15.59,1.88.96,2.61,1.33-.07.23-.14.47-.22.7-2.64-.78-5.28-1.56-7.91-2.34-.13.24-.25.48-.38.72,2.73,1.34,5.46,2.68,8.2,4.03,0,.14.01.27.02.41-3.11-1.05-6.21-2.1-9.32-3.15-.15.25-.31.5-.46.75,1.66,1.28,3.32,2.55,4.97,3.82-5.27-.32-8.33-5.95-5.4-10.14.49-.71,1.78-1.23,2.7-1.21,2.93.04,5.85.38,8.71,1.29-1.47-.13-2.94-.26-4.99-.45,1.85,1.45,3.3,2.59,5.03,3.96ZM78.26,182.23c-3.63-2.54-6.71-4.7-9.79-6.85.14-.14.28-.28.43-.42,4.42,1.22,8.84,2.45,13.27,3.67-.12.4-.23.8-.35,1.2-1.64-.48-3.29-.96-5.23-1.53.49,1.15.94,2.2,1.67,3.94ZM66.29,193.91c1.68,2.21,3.36,4.41,5.04,6.62-.33.27-.67.55-1,.82-3.65-4.51-7.31-9.02-10.96-13.53.31-.31.61-.62.92-.94,5.09,3.24,10.18,6.47,15.98,10.16-4.59,1.08-6.29-2.79-9.98-3.14ZM75.01,205.93c-11.55,1.15-23.21-4.06-24.11-13.88,5.65,8.5,14.3,11.97,24.11,13.88ZM59.4,164.54c.54,3.05,1.18,6.65,1.72,9.66-2.73-1.77-3.5-5.73-1.72-9.66ZM65.41,144.84c.25,1.67,1.71,3.16,2.63,4.73-4.96-2.73-5.5-7.4-1.64-10.57-.4,2.08-1.26,4.05-.99,5.84ZM70.72,122.21c.09-1.9.2-4.15.34-6.96,1.64-.48,3.78-1.1,5.86-1.71-2.21,3.1-4.3,6.01-6.2,8.67ZM77.43,140.53c.11,1.04-1.22,2.24-1.89,3.36-.72-.99-2.14-2.06-2.03-2.95.33-2.67,1.26-5.26,1.98-7.98.73,2.67,1.68,5.09,1.94,7.57ZM71.44,146.38c.35.33.7.65,1.05.98,2.99-1.14,5.93-2.98,8.99-3.21,3.26-.25,6.63,1.04,10.16,1.69-3.59,3.85-8.16,4.7-13.02,4.79-.58.01-1.16.02-1.75.01-2.26-.02-4.8-.14-5.28,2.71-.22,1.28.47,3.36,1.46,4.05,1.49,1.04,3.61,1.18,5.71,1.77-.47,2.26-2.7,2.95-5.47,3.08-1.57.08-3.13.49-5.6.9-.64-1.59-1.6-3.99-2.55-6.39.27-.14.54-.27.81-.41.66.86,1.32,1.72,1.88,2.46,1.24-4.24,2.43-8.34,3.62-12.44ZM91.14,98.82c-.4,1.21-.84,2.41-1.19,3.64-.35,1.21-.6,2.43-1.29,3.62,0-3.78-.02-7.56,0-11.34.01-2.32.18-4.65.12-6.97-.14-6.35.35-5-4.9-5.01,5.86-3.74,19.14-3.85,29.98.03-3.11-.4-5.54-.63-7.94-1.04-2.32-.4-3.08.59-3.23,2.8-.37,5.68-.88,11.36-1.41,17.03-.16,1.67-.58,3.31-1.53,4.96-.31-1.14-.63-2.29-.94-3.42-4.72.4-4.85.27-5.45-5.68-.53,1.86-1.06,3.72-1.6,5.58-.16-.03-.31-.06-.47-.09.11-1.32.23-2.64.34-3.96-.17-.05-.35-.1-.52-.15ZM87.53,110.65c9.56-1.34,19.06-.85,28.44,1.47.43.11.81.37,1.11,1.05-3.5-.49-7.06-.75-10.49-1.54-4.83-1.12-8.23.19-9.9,4.75-1.37-1.35-2.45-3.09-3.98-3.74-1.7-.72-3.83-.43-5.47-.56-.72,1.82-1.52,2.91-1.49,3.98.03,1.07.89,2.11,1.08,3.59-1.5-1.18-2.99-2.36-4.76-3.76-.67,1.73-1.14,2.93-1.86,4.79-.05-7.97.73-9.11,7.32-10.04ZM85.97,138.35c.7-.98,1.4-1.96,2.55-3.57.49,1.73.86,3.01,1.22,4.28-2.09-.02-4.24.22-6.25-.19-.87-.17-1.47-1.69-2.19-2.59,1.33-.96,2.67-1.92,4.66-3.35-.42,2.51-.63,3.79-.84,5.06.28.12.56.24.84.37ZM88.39,124.62c0-.18,0-.36,0-.54h22.1c.04.18.08.36.12.54h-22.23ZM109.33,136.22c.36.45.72.89,1.3,1.61.48-1.11.89-2.07,1.3-3.03.31-.02.62-.05.92-.07.15,1.34.81,2.95.28,3.95-.4.76-2.39,1.15-3.47.89-.63-.15-.87-1.93-1.28-2.97.32-.12.63-.25.94-.37ZM70.82,164.11c-.12-.42-.24-.85-.36-1.27,5.3,1.82,8.85-.12,11.44-4.98.38,1.19.54,1.71.86,2.72.83-1.37,1.45-2.4,1.97-3.26-1.68,9.28-6.76,11.97-14.43,8.46,2.49.14,4.95.27,7.41.41.04-.32.09-.63.13-.95-2.34-.38-4.68-.76-7.01-1.13ZM88.21,149.64c9.23-2.13,6.88-8.76,6.68-14.19,1.14-.81,2.06-1.47,3.76-2.68.29,2.74.77,5.24.76,7.73-.02,3.75-.18,7.33,4.74,8.26.79.15,1.41,1.22,2.65,2.37-6.66.38-12.29,1.66-18.58-1.49ZM102.98,145.64c6.67,1.09,13.29-2.9,19.5,1.8.17-.3.34-.61.51-.91-.17-1.48-.33-2.95-.53-4.74,4.36,6.55,4.02,11.17-.69,12.6.74.43,1.61,1.35,2.21,1.2,2.41-.61,3.56-.52,2.45,2.44-.37.98.05,2.26.11,3.39-6.98,2.75-8.92,2.85-13.3-.02,2.77-1.05,4.85-1.84,6.91-2.62-.98-.32-2.19-.71-3.4-1.1,3.88-1.17,1.26-3.72,1.59-5.41-1.1-.13-2.22-.14-3.28-.41-1.94-.49-4-.86-5.74-1.79-2.19-1.16-4.11-2.83-6.35-4.43ZM119.27,135.2c1.14,1.54,2.24,3.03,3.26,4.4-.56,1.07-1.24,2.37-1.92,3.64q-1.82-1.11-1.34-8.05ZM115.74,177.56c2.97-2.63,5.95-5.25,9-7.95-.07,3.19-4.55,7.72-9,7.95ZM129.26,190.62c-.33-.11-.83-.27-1.49-.49,3.1-2.63,6.08-5.16,9.14-7.76-.96,8.22-7.06,12.36-13.22,17.29-2.15-6.13,4.88-5.26,5.56-9.05ZM28.02,278.41l-.48-12.62h-5.76l-2.65,12.62H7.03l15.62-63.07h13.56l4.29,63.07h-12.48ZM65.68,278.41h-22.53l3.06-63.07h9.98l-1.53,52.26h11.08l-.07,10.81ZM95.9,270.57c-.56,2.6-1.47,4.6-2.69,5.94-1.24,1.37-2.81,2.28-4.65,2.71-1.76.41-3.67.62-5.69.62s-4.02-.21-5.77-.61c-1.83-.43-3.44-1.34-4.78-2.69-1.32-1.34-2.35-3.31-3.06-5.87-.68-2.46-1.03-5.78-1.04-9.87l-.06-45.45h10.06l1.02,49.13c.03,1.49.22,2.68.56,3.54.31.78.69,1.29,1.14,1.51.52.26,1.07.39,1.68.39.55,0,1.06-.12,1.56-.38.42-.21.76-.71,1.02-1.48.29-.86.41-2.05.36-3.54l-1.81-49.17h10.06l2.56,45.41c.23,4.02.07,7.32-.47,9.82ZM94.73,188.45c-.7-1.3-1.16-2.14-1.67-3.09-.41.67-.79,1.29-1.28,2.09-1.14-5.97,4.85-9.89,12.09-7.77-1.88,2.2-3.65,4.27-5.51,6.45-1.47-1.15-2.85-.65-3.62,2.31ZM132.39,278.41l-4.95-38.41-.84,38.41h-7.98l-9.03-38.18,3.33,38.18h-10.11l-4.42-63.07h12.1l9.03,33.93,1.76-33.93h12.01l9.22,63.07h-10.12ZM167.25,278.41l-14.69-31.96,5.67,31.96h-10.12l-10.11-63.07h8.82l13.67,30.01-5.94-30.01h9.05l13.56,63.07h-9.91ZM168.22,215.34h10.1l15.67,63.07h-11.33l-14.44-63.07ZM22.86,257.84h5.09l-.31-24.85-4.79,24.85ZM27.64,233l-4.79,24.85h5.09l-.31-24.85ZM27.64,233l-4.79,24.85h5.09l-.31-24.85ZM27.64,233l-4.79,24.85h5.09l-.31-24.85ZM27.64,233l-4.79,24.85h5.09l-.31-24.85Z"/>
  <path class="cls-2" d="M101.25,10.5c-13.73,0-24.9,11.17-24.9,24.9s11.17,24.9,24.9,24.9,24.9-11.17,24.9-24.9-11.17-24.9-24.9-24.9ZM104.9,13.57c7.32,1.22,13.43,6.05,16.45,12.59-1.46-1.49-3.31-3.05-5.59-4.45-4.28-2.63-9.62-4.08-12.19-4.68.46-1.45.94-2.63,1.34-3.46ZM101.25,13.27c.25,0,.5,0,.75.01-.79,1.84-1.88,4.93-2.41,8.92-.89,6.79-.23,11.15.14,12.83-.34.37-.89.92-1.65,1.55-.92.76-2.29,1.74-4.08,2.63-.17-.54-.36-1.31-.54-2.33-.37-2.09-.73-5.64-.36-10.71.44-5.91,2.95-10.95,3.78-12.47,1.41-.28,2.87-.43,4.37-.43ZM85.37,28.2c.48-6.46,3.91-11.08,4.43-11.73,1.1-.67,2.26-1.24,3.47-1.71-1.15,2.58-2.59,6.62-2.93,11.21-.58,7.77.47,12.37,1.1,14.33-1.8.64-3.5,1.08-5.03,1.37-.18-.53-.45-1.44-.68-2.75-.37-2.09-.73-5.64-.36-10.71ZM80.19,42.21c-.7-2.15-1.08-4.44-1.08-6.81,0-5.22,1.82-10.01,4.84-13.8-.65,1.85-1.18,4-1.36,6.4-.55,7.45.39,11.98,1.02,14.08-1.5.15-2.68.16-3.43.14ZM83.96,49.19c-1.03-1.29-1.92-2.7-2.65-4.2,2.46-.04,6.64-.43,11.51-2.25,4.82-1.79,7.77-4.56,8.94-5.83,1.22.28,3.82,1.01,6.48,2.58-1.34,1.66-4.28,4.82-8.52,6.82-5.67,2.68-13.35,2.88-15.77,2.88ZM86.54,51.91c3.66-.17,9.57-.82,14.38-3.09,4.89-2.31,8.17-5.91,9.62-7.74.13.1.25.21.38.31,1.3,1.11,2.44,2.18,3.42,3.18-1.41,1.69-4.27,4.72-8.13,6.79-5.73,3.06-13.75,3.31-15.79,3.32-1.39-.78-2.69-1.71-3.87-2.77ZM101.25,57.52c-1.6,0-3.16-.17-4.66-.5,3.38-.45,7.47-1.37,10.93-3.22,4.1-2.19,7.11-5.28,8.73-7.19,1,1.14,1.73,2.08,2.19,2.7-4.06,5-10.25,8.2-17.18,8.2ZM120.11,46.94c-1.33-1.72-3.78-4.57-7.39-7.66-3.88-3.31-8.4-4.63-10.33-5.07-.22-1.12-.55-3.44-.45-6.85,2.3.56,7.3,1.99,10.89,4.5,5.19,3.64,8.7,7.97,9.76,9.36-.56,2.03-1.4,3.95-2.48,5.71ZM114.42,29.6c-4.27-3-10.08-4.54-12.3-5.05.06-.64.13-1.3.22-1.99.13-1,.31-1.96.51-2.85,2.36.55,7.5,1.93,11.46,4.36,5.65,3.47,8.4,8.13,8.96,9.15.07.71.11,1.44.11,2.17s-.04,1.51-.11,2.26c-1.81-2.11-4.83-5.24-8.83-8.05Z"/>
</svg>